# xmcd
# 
# Track frame offsets:
#     150
#     23835
#     42930
#     61337
#     85105
#     105285
#     123920
#     139422
#     161325
#     183770
# 
# Disc length: 2722
# 
# Revision: 2
# Processed by: cddbd v1.5.2PL0 Copyright (c) Steve Scherf et al.
# Submitted via: fre:ac v1.0.17
# 
DISCID=740aa00a
DTITLE=Hobo Blues Band - Férfibánat
DYEAR=1992
DGENRE=Blues
TTITLE0=Mint egy tolvaj
TTITLE1=Karácsonyi üdvözlet
TTITLE2=Meg nem írt levél
TTITLE3=Néha egy idegen is jobb a magánynál
TTITLE4=Férfibánat
TTITLE5=Péntek esti hős
TTITLE6=Ballada a parlamenthez (Faludy mester tiszteletére)
TTITLE7=Egy hosszú film után
TTITLE8=Balladás barátaim Bereményi Gézának és Cseh Tamásnak)
TTITLE9=Semmid nincs, de Ő a tied
EXTD=
EXTT0=
EXTT1=
EXTT2=
EXTT3=
EXTT4=
EXTT5=
EXTT6=
EXTT7=
EXTT8=
EXTT9=
PLAYORDER=
